<svg version="1.1" id="Layer_1" xmlns="http://www.w3.org/2000/svg" xmlns:xlink="http://www.w3.org/1999/xlink" x="0px" y="0px"
	 width="100%" viewBox="0 0 525 253" enable-background="new 0 0 525 253" xml:space="preserve">
<path fill="#3B3B3B" opacity="1.000000" stroke="none" 
	d="
M500.000000,254.000000 
	C333.333374,254.000000 167.166733,254.000000 1.000067,254.000000 
	C1.000045,169.666718 1.000045,85.333420 1.000022,1.000101 
	C175.999924,1.000067 350.999847,1.000067 525.999817,1.000034 
	C525.999878,85.333244 525.999878,169.666489 525.999939,253.999863 
	C517.500000,254.000000 509.000000,254.000000 500.000000,254.000000 
M165.223083,97.688499 
	C160.932129,97.688499 156.641174,97.688499 151.725189,97.688499 
	C159.403046,113.806732 166.515259,129.337128 174.292282,144.527161 
	C175.741791,147.358353 179.682022,150.240402 182.784149,150.631927 
	C189.927673,151.533508 197.262680,150.917847 204.893646,150.917847 
	C198.470184,137.448624 191.725540,124.490654 186.083649,111.069138 
	C182.164810,101.746574 176.516342,96.572670 165.223083,97.688499 
M153.858398,120.625679 
	C151.383865,115.544922 149.313980,110.204689 146.284134,105.480042 
	C144.445877,102.613556 141.337891,99.060135 138.425049,98.678329 
	C131.040787,97.710419 123.444916,98.356934 115.907074,98.356934 
	C115.953789,98.996994 115.884903,99.364914 116.014359,99.639236 
	C123.034119,114.514252 129.812912,129.513641 137.319672,144.139313 
	C138.845993,147.113083 142.919724,150.142822 146.170029,150.588684 
	C153.262680,151.561600 160.580994,150.889465 168.219971,150.889465 
	C163.399597,140.772324 158.766937,131.049179 153.858398,120.625679 
M418.069672,150.713638 
	C425.670837,148.458694 431.235626,144.137573 432.005463,135.717484 
	C433.148071,123.219849 422.741425,114.286415 409.673157,116.448654 
	C406.337097,117.000618 403.093536,118.111267 399.280945,119.102058 
	C399.280945,113.566330 399.280945,108.462334 399.280945,103.409012 
	C396.248413,103.409012 393.690491,103.409012 391.207275,103.409012 
	C391.207275,119.336617 391.207275,134.910751 391.207275,150.844604 
	C393.288147,150.844604 395.098297,150.987061 396.875366,150.805664 
	C398.759918,150.613281 400.625519,149.753296 402.477570,149.817200 
	C407.417480,149.987640 412.345673,150.497604 418.069672,150.713638 
M230.583923,129.050354 
	C227.324631,129.593475 223.932465,129.737106 220.835159,130.767242 
	C215.280090,132.614807 212.878204,137.109482 213.984726,142.449051 
	C214.891678,146.825653 219.221191,150.674942 225.147049,150.827164 
	C231.321686,150.985809 237.526306,149.978241 244.137299,149.446869 
	C245.591248,152.957016 249.384537,150.118484 253.330948,150.901978 
	C252.886368,143.068939 252.797180,135.790558 251.955063,128.600372 
	C251.361069,123.528755 248.274551,119.671959 243.324005,117.864014 
	C234.264893,114.555626 225.550369,116.548706 216.512604,119.420921 
	C217.523438,122.000847 218.290329,123.958138 219.039688,125.870720 
	C235.587067,122.096199 241.337601,123.125420 243.801865,130.398590 
	C239.638885,129.942230 235.575516,129.496765 230.583923,129.050354 
M354.941895,123.988564 
	C357.930511,124.003151 360.956848,123.724503 363.898743,124.102676 
	C368.066650,124.638435 369.884247,126.653778 370.323425,129.749435 
	C364.003540,129.749435 357.522919,129.152954 351.203430,129.907074 
	C344.016418,130.764709 340.679749,134.795059 340.818817,140.440369 
	C340.956604,146.035187 345.241791,150.561066 352.127258,150.819687 
	C358.295258,151.051376 364.512146,149.980789 371.137817,149.450287 
	C372.596130,152.907745 376.357727,150.210388 380.328461,150.857849 
	C379.885712,143.067184 379.776611,135.787964 378.956879,128.589676 
	C378.401123,123.709122 375.470886,119.894066 370.767151,118.046738 
	C361.582336,114.439514 352.710205,116.529732 343.451843,119.431244 
	C344.490143,122.035744 345.268921,123.989220 346.065399,125.987129 
	C348.950562,125.289261 351.504791,124.671440 354.941895,123.988564 
M297.999023,120.455711 
	C290.134308,114.111794 281.616211,115.867210 272.481384,118.998245 
	C272.481384,113.379471 272.481384,108.309204 272.481384,103.439972 
	C269.360352,103.439972 266.799042,103.439972 264.370911,103.439972 
	C264.370911,119.418587 264.370911,134.995956 264.370911,150.481094 
	C267.266357,150.481094 269.821381,150.481094 272.738525,150.481094 
	C272.738525,143.628540 272.679749,137.156815 272.785034,130.687775 
	C272.807800,129.289383 272.954712,127.259285 273.840546,126.615486 
	C278.294769,123.378197 283.459717,122.773117 288.572784,124.534271 
	C293.198669,126.127617 295.011505,129.981903 294.981171,134.775223 
	C294.947845,140.043564 294.973572,145.312286 294.973572,150.675751 
	C298.056580,150.675751 300.500275,150.675751 303.305328,150.675751 
	C303.305328,144.211502 303.861603,137.859238 303.096252,131.670380 
	C302.638947,127.972389 300.110779,124.530495 297.999023,120.455711 
M309.954132,122.060745 
	C312.536469,122.659172 315.118835,123.257599 318.182556,123.967575 
	C318.182556,132.630692 318.182556,141.566284 318.182556,150.520264 
	C321.193512,150.520264 323.749817,150.520264 326.868958,150.520264 
	C326.868958,141.292114 326.868958,132.396286 326.868958,123.453232 
	C329.843323,123.239952 332.250153,123.067368 334.898743,122.877457 
	C334.803711,120.710915 334.727203,118.965981 334.644562,117.081482 
	C331.828888,116.936859 329.407318,116.812469 326.454285,116.660789 
	C326.454285,113.008537 326.454285,109.770409 326.454285,106.511673 
	C323.443085,106.511673 321.000610,106.511673 318.069519,106.511673 
	C318.069519,109.988243 318.069519,113.229424 318.069519,116.887665 
	C315.161530,116.887665 312.739197,116.887665 309.908875,116.887665 
	C309.908875,118.595383 309.908875,119.880150 309.954132,122.060745 
M112.789383,131.072632 
	C106.149689,132.716568 102.175308,136.489349 102.172722,141.150772 
	C102.170479,145.196686 105.841507,150.335983 110.250198,150.706955 
	C117.073212,151.281082 123.980103,150.858398 131.222382,150.858398 
	C129.412170,146.888367 127.571182,143.362061 126.173286,139.668060 
	C123.947670,133.786804 119.730797,131.112274 112.789383,131.072632 
z"/>
<path fill="#F2F2F2" opacity="1.000000" stroke="none" 
	d="
M165.666565,97.693970 
	C176.516342,96.572670 182.164810,101.746574 186.083649,111.069138 
	C191.725540,124.490654 198.470184,137.448624 204.893646,150.917847 
	C197.262680,150.917847 189.927673,151.533508 182.784149,150.631927 
	C179.682022,150.240402 175.741791,147.358353 174.292282,144.527161 
	C166.515259,129.337128 159.403046,113.806732 151.725189,97.688499 
	C156.641174,97.688499 160.932129,97.688499 165.666565,97.693970 
z"/>
<path fill="#F2F2F2" opacity="1.000000" stroke="none" 
	d="
M153.996338,120.975861 
	C158.766937,131.049179 163.399597,140.772324 168.219971,150.889465 
	C160.580994,150.889465 153.262680,151.561600 146.170029,150.588684 
	C142.919724,150.142822 138.845993,147.113083 137.319672,144.139313 
	C129.812912,129.513641 123.034119,114.514252 116.014359,99.639236 
	C115.884903,99.364914 115.953789,98.996994 115.907074,98.356934 
	C123.444916,98.356934 131.040787,97.710419 138.425049,98.678329 
	C141.337891,99.060135 144.445877,102.613556 146.284134,105.480042 
	C149.313980,110.204689 151.383865,115.544922 153.996338,120.975861 
z"/>
<path fill="#FAFAFA" opacity="1.000000" stroke="none" 
	d="
M417.674072,150.793121 
	C412.345673,150.497604 407.417480,149.987640 402.477570,149.817200 
	C400.625519,149.753296 398.759918,150.613281 396.875366,150.805664 
	C395.098297,150.987061 393.288147,150.844604 391.207275,150.844604 
	C391.207275,134.910751 391.207275,119.336617 391.207275,103.409012 
	C393.690491,103.409012 396.248413,103.409012 399.280945,103.409012 
	C399.280945,108.462334 399.280945,113.566330 399.280945,119.102058 
	C403.093536,118.111267 406.337097,117.000618 409.673157,116.448654 
	C422.741425,114.286415 433.148071,123.219849 432.005463,135.717484 
	C431.235626,144.137573 425.670837,148.458694 417.674072,150.793121 
M406.449066,143.298584 
	C412.321320,144.666245 417.848511,144.202194 421.613861,138.938004 
	C424.138428,135.408447 423.882477,131.390915 421.222443,127.837173 
	C418.376495,124.035110 412.067566,122.642677 406.161316,124.594505 
	C402.798340,125.705872 399.180878,126.446457 399.211792,131.524063 
	C399.267731,140.725418 399.047668,140.726761 406.449066,143.298584 
z"/>
<path fill="#F8F8F8" opacity="1.000000" stroke="none" 
	d="
M231.048035,129.050842 
	C235.575516,129.496765 239.638885,129.942230 243.801865,130.398590 
	C241.337601,123.125420 235.587067,122.096199 219.039688,125.870720 
	C218.290329,123.958138 217.523438,122.000847 216.512604,119.420921 
	C225.550369,116.548706 234.264893,114.555626 243.324005,117.864014 
	C248.274551,119.671959 251.361069,123.528755 251.955063,128.600372 
	C252.797180,135.790558 252.886368,143.068939 253.330948,150.901978 
	C249.384537,150.118484 245.591248,152.957016 244.137299,149.446869 
	C237.526306,149.978241 231.321686,150.985809 225.147049,150.827164 
	C219.221191,150.674942 214.891678,146.825653 213.984726,142.449051 
	C212.878204,137.109482 215.280090,132.614807 220.835159,130.767242 
	C223.932465,129.737106 227.324631,129.593475 231.048035,129.050842 
M223.943787,137.349747 
	C224.042862,139.045822 223.458832,141.482269 224.357635,142.311584 
	C228.554840,146.184219 241.026672,143.365814 244.248535,137.681656 
	C237.638443,136.233490 231.282715,134.740753 223.943787,137.349747 
z"/>
<path fill="#F8F8F8" opacity="1.000000" stroke="none" 
	d="
M354.500458,124.021088 
	C351.504791,124.671440 348.950562,125.289261 346.065399,125.987129 
	C345.268921,123.989220 344.490143,122.035744 343.451843,119.431244 
	C352.710205,116.529732 361.582336,114.439514 370.767151,118.046738 
	C375.470886,119.894066 378.401123,123.709122 378.956879,128.589676 
	C379.776611,135.787964 379.885712,143.067184 380.328461,150.857849 
	C376.357727,150.210388 372.596130,152.907745 371.137817,149.450287 
	C364.512146,149.980789 358.295258,151.051376 352.127258,150.819687 
	C345.241791,150.561066 340.956604,146.035187 340.818817,140.440369 
	C340.679749,134.795059 344.016418,130.764709 351.203430,129.907074 
	C357.522919,129.152954 364.003540,129.749435 370.323425,129.749435 
	C369.884247,126.653778 368.066650,124.638435 363.898743,124.102676 
	C360.956848,123.724503 357.930511,124.003151 354.500458,124.021088 
M349.815582,139.512802 
	C350.211182,143.686676 353.538940,143.792847 356.440460,143.920639 
	C362.061157,144.168182 367.250061,142.934372 371.177704,138.136215 
	C367.027069,136.882401 362.967804,135.924271 358.954163,136.087708 
	C355.922668,136.211166 352.949585,137.768524 349.815582,139.512802 
z"/>
<path fill="#F5F5F5" opacity="1.000000" stroke="none" 
	d="
M298.256287,120.714592 
	C300.110779,124.530495 302.638947,127.972389 303.096252,131.670380 
	C303.861603,137.859238 303.305328,144.211502 303.305328,150.675751 
	C300.500275,150.675751 298.056580,150.675751 294.973572,150.675751 
	C294.973572,145.312286 294.947845,140.043564 294.981171,134.775223 
	C295.011505,129.981903 293.198669,126.127617 288.572784,124.534271 
	C283.459717,122.773117 278.294769,123.378197 273.840546,126.615486 
	C272.954712,127.259285 272.807800,129.289383 272.785034,130.687775 
	C272.679749,137.156815 272.738525,143.628540 272.738525,150.481094 
	C269.821381,150.481094 267.266357,150.481094 264.370911,150.481094 
	C264.370911,134.995956 264.370911,119.418587 264.370911,103.439972 
	C266.799042,103.439972 269.360352,103.439972 272.481384,103.439972 
	C272.481384,108.309204 272.481384,113.379471 272.481384,118.998245 
	C281.616211,115.867210 290.134308,114.111794 298.256287,120.714592 
z"/>
<path fill="#F5F5F5" opacity="1.000000" stroke="none" 
	d="
M309.931519,121.612831 
	C309.908875,119.880150 309.908875,118.595383 309.908875,116.887665 
	C312.739197,116.887665 315.161530,116.887665 318.069519,116.887665 
	C318.069519,113.229424 318.069519,109.988243 318.069519,106.511673 
	C321.000610,106.511673 323.443085,106.511673 326.454285,106.511673 
	C326.454285,109.770409 326.454285,113.008537 326.454285,116.660789 
	C329.407318,116.812469 331.828888,116.936859 334.644562,117.081482 
	C334.727203,118.965981 334.803711,120.710915 334.898743,122.877457 
	C332.250153,123.067368 329.843323,123.239952 326.868958,123.453232 
	C326.868958,132.396286 326.868958,141.292114 326.868958,150.520264 
	C323.749817,150.520264 321.193512,150.520264 318.182556,150.520264 
	C318.182556,141.566284 318.182556,132.630692 318.182556,123.967575 
	C315.118835,123.257599 312.536469,122.659172 309.931519,121.612831 
z"/>
<path fill="#F1F1F1" opacity="1.000000" stroke="none" 
	d="
M113.201263,131.067535 
	C119.730797,131.112274 123.947670,133.786804 126.173286,139.668060 
	C127.571182,143.362061 129.412170,146.888367 131.222382,150.858398 
	C123.980103,150.858398 117.073212,151.281082 110.250198,150.706955 
	C105.841507,150.335983 102.170479,145.196686 102.172722,141.150772 
	C102.175308,136.489349 106.149689,132.716568 113.201263,131.067535 
z"/>
<path fill="#414141" opacity="1.000000" stroke="none" 
	d="
M406.051056,143.201843 
	C399.047668,140.726761 399.267731,140.725418 399.211792,131.524063 
	C399.180878,126.446457 402.798340,125.705872 406.161316,124.594505 
	C412.067566,122.642677 418.376495,124.035110 421.222443,127.837173 
	C423.882477,131.390915 424.138428,135.408447 421.613861,138.938004 
	C417.848511,144.202194 412.321320,144.666245 406.051056,143.201843 
z"/>
<path fill="#434343" opacity="1.000000" stroke="none" 
	d="
M224.317581,137.153427 
	C231.282715,134.740753 237.638443,136.233490 244.248535,137.681656 
	C241.026672,143.365814 228.554840,146.184219 224.357635,142.311584 
	C223.458832,141.482269 224.042862,139.045822 224.317581,137.153427 
z"/>
<path fill="#434343" opacity="1.000000" stroke="none" 
	d="
M349.883057,139.100250 
	C352.949585,137.768524 355.922668,136.211166 358.954163,136.087708 
	C362.967804,135.924271 367.027069,136.882401 371.177704,138.136215 
	C367.250061,142.934372 362.061157,144.168182 356.440460,143.920639 
	C353.538940,143.792847 350.211182,143.686676 349.883057,139.100250 
z"/>
</svg>